<?xml version="1.0" encoding="utf-8"?>
<!-- Generator: Adobe Illustrator 27.5.0, SVG Export Plug-In . SVG Version: 6.00 Build 0)  -->
<svg version="1.1" id="Layer_1" xmlns="http://www.w3.org/2000/svg" xmlns:xlink="http://www.w3.org/1999/xlink" x="0px" y="0px"
	 viewBox="0 0 7000 3000" style="enable-background:new 0 0 7000 3000;" xml:space="preserve">
<g id="Layer_x5F_1">
	<g id="_1469638381184">
		<rect style="fill:#FFFF;" width="7000" height="3000"/>
		
			<linearGradient id="SVGID_1_" gradientUnits="userSpaceOnUse" x1="1837.9697" y1="89.3225" x2="1634.6215" y2="3354.8271" gradientTransform="matrix(1 0 0 -1 0 3002)">
			<stop  offset="0" style="stop-color:#0276DB"/>
			<stop  offset="1" style="stop-color:#8EFFC1"/>
		</linearGradient>
		<path style="fill:url(#SVGID_1_);" d="M0,3000c1663.13,0-759.47-2484.01,1401.88-2631.27C2138.43,318.55,3015.4,461.85,3500,0H0
			V3000z"/>
		
			<linearGradient id="SVGID_00000081630066132003680850000012564014678024569488_" gradientUnits="userSpaceOnUse" x1="5448.27" y1="3185.9543" x2="5244.9224" y2="-79.5415" gradientTransform="matrix(1 0 0 -1 0 3002)">
			<stop  offset="0" style="stop-color:#0276DB"/>
			<stop  offset="1" style="stop-color:#8EFFC1"/>
		</linearGradient>
		<path style="fill:url(#SVGID_00000081630066132003680850000012564014678024569488_);" d="M7000,0
			c-1663.13,0,759.47,2484.01-1401.88,2631.26C4861.57,2681.45,3984.6,2538.15,3500,3000h3500V0z"/>
		
			<linearGradient id="SVGID_00000078727626726813771410000005550914242744102304_" gradientUnits="userSpaceOnUse" x1="1750" y1="2436.4011" x2="1750" y2="-32.35" gradientTransform="matrix(1 0 0 -1 0 3002)">
			<stop  offset="0" style="stop-color:#9027E2"/>
			<stop  offset="1" style="stop-color:#FF6CA8"/>
		</linearGradient>
		<path style="fill:url(#SVGID_00000078727626726813771410000005550914242744102304_);" d="M745.09,3000
			c1295.25-229.29-962.95-2143.42,914.12-2472.1C2312.91,413.43,3110.43,458.67,3500,0c-484.6,461.85-1361.57,318.55-2098.12,368.73
			C-759.47,515.99,1663.13,3000,0,3000H745.09L745.09,3000z"/>
		
			<linearGradient id="SVGID_00000011743277393202578640000008804193616802186125_" gradientUnits="userSpaceOnUse" x1="5250" y1="-32.35" x2="5250" y2="2436.4009" gradientTransform="matrix(1 0 0 -1 0 3002)">
			<stop  offset="0" style="stop-color:#9027E2"/>
			<stop  offset="1" style="stop-color:#FF6CA8"/>
		</linearGradient>
		<path style="fill:url(#SVGID_00000011743277393202578640000008804193616802186125_);" d="M6254.91,0
			c-1295.25,229.29,962.95,2143.42-914.12,2472.09C4687.09,2586.56,3889.57,2541.33,3500,3000
			c484.6-461.85,1361.57-318.55,2098.12-368.74C7759.47,2484.01,5336.87,0,7000,0H6254.91z"/>
		<defs>
			<filter id="Adobe_OpacityMaskFilter" filterUnits="userSpaceOnUse" x="0" y="0" width="3500" height="3000">
				<feColorMatrix  type="matrix" values="1 0 0 0 0  0 1 0 0 0  0 0 1 0 0  0 0 0 1 0"/>
			</filter>
		</defs>
		<mask maskUnits="userSpaceOnUse" x="0" y="0" width="3500" height="3000" id="id0_1_">
			<defs>
				
					<filter id="Adobe_OpacityMaskFilter_00000125590232210869552930000014120824531453481913_" filterUnits="userSpaceOnUse" x="-1.04" y="-1.04" width="3502.08" height="3002.08">
					<feFlood  style="flood-color:white;flood-opacity:1" result="back"/>
					<feBlend  in="SourceGraphic" in2="back" mode="normal"/>
				</filter>
			</defs>
			
				<mask maskUnits="userSpaceOnUse" x="-1.04" y="-1.04" width="3502.08" height="3002.08" id="id0_1_" style="filter:url(#Adobe_OpacityMaskFilter);">
				<g style="filter:url(#Adobe_OpacityMaskFilter_00000125590232210869552930000014120824531453481913_);">
					<defs>
						
							<filter id="Adobe_OpacityMaskFilter_00000041263624620552975160000016375772809843024044_" filterUnits="userSpaceOnUse" x="-1.04" y="-1.04" width="3502.08" height="3002.08">
							<feFlood  style="flood-color:white;flood-opacity:1" result="back"/>
							<feBlend  in="SourceGraphic" in2="back" mode="normal"/>
						</filter>
					</defs>
					<mask maskUnits="userSpaceOnUse" x="-1.04" y="-1.04" width="3502.08" height="3002.08" id="id0_1_">
						<g style="filter:url(#Adobe_OpacityMaskFilter_00000041263624620552975160000016375772809843024044_);">
						</g>
					</mask>
					
						<linearGradient id="SVGID_00000178167609149778874200000002738037924289834129_" gradientUnits="userSpaceOnUse" x1="1750" y1="6605.3257" x2="1750" y2="214.5279" gradientTransform="matrix(1 0 0 -1 0 3002)">
						<stop  offset="0" style="stop-color:#FFFFFF"/>
						<stop  offset="1" style="stop-color:#000000"/>
					</linearGradient>
					
						<rect x="-1.04" y="-1.04" style="mask:url(#id0_1_);fill:url(#SVGID_00000178167609149778874200000002738037924289834129_);" width="3502.08" height="3002.08"/>
				</g>
			</mask>
			
				<linearGradient id="SVGID_00000028290794623484818980000012424132149284959106_" gradientUnits="userSpaceOnUse" x1="1750" y1="6605.3257" x2="1750" y2="214.5279" gradientTransform="matrix(1 0 0 -1 0 3002)">
				<stop  offset="0" style="stop-color:#FFFFFF"/>
				<stop  offset="1" style="stop-color:#FFFFFF"/>
			</linearGradient>
			
				<rect x="-1.04" y="-1.04" style="fill:url(#SVGID_00000028290794623484818980000012424132149284959106_);" width="3502.08" height="3002.08"/>
		</mask>
		<path style="fill:#FFFFFF;" d="M0,3000c1663.13,0-759.47-2484.01,1401.88-2631.27C2138.43,318.55,3015.4,461.85,3500,0
			c-523.08,471.71-1441.3,295.57-2217.43,327c-1420.38,57.52-991.89,1122.64-892.52,1904.51
			c51.66,406.42-69.24,553.85-390.05,595.85L0,3000L0,3000z"/>
		<defs>
			
				<filter id="Adobe_OpacityMaskFilter_00000179615276375731093460000007607925179289853868_" filterUnits="userSpaceOnUse" x="3500" y="0" width="3500" height="3000">
				<feColorMatrix  type="matrix" values="1 0 0 0 0  0 1 0 0 0  0 0 1 0 0  0 0 0 1 0"/>
			</filter>
		</defs>
		<mask maskUnits="userSpaceOnUse" x="3500" y="0" width="3500" height="3000" id="id2_1_">
			<defs>
				
					<filter id="Adobe_OpacityMaskFilter_00000174581000570326785550000009513265343329469369_" filterUnits="userSpaceOnUse" x="3498.96" y="-1.04" width="3502.08" height="3002.08">
					<feFlood  style="flood-color:white;flood-opacity:1" result="back"/>
					<feBlend  in="SourceGraphic" in2="back" mode="normal"/>
				</filter>
			</defs>
			
				<mask maskUnits="userSpaceOnUse" x="3498.96" y="-1.04" width="3502.08" height="3002.08" id="id2_1_" style="filter:url(#Adobe_OpacityMaskFilter_00000179615276375731093460000007607925179289853868_);">
				<g style="filter:url(#Adobe_OpacityMaskFilter_00000174581000570326785550000009513265343329469369_);">
					<defs>
						
							<filter id="Adobe_OpacityMaskFilter_00000050631731887032055260000013121177886376112788_" filterUnits="userSpaceOnUse" x="3498.96" y="-1.04" width="3502.08" height="3002.08">
							<feFlood  style="flood-color:white;flood-opacity:1" result="back"/>
							<feBlend  in="SourceGraphic" in2="back" mode="normal"/>
						</filter>
					</defs>
					<mask maskUnits="userSpaceOnUse" x="3498.96" y="-1.04" width="3502.08" height="3002.08" id="id2_1_">
						<g style="filter:url(#Adobe_OpacityMaskFilter_00000050631731887032055260000013121177886376112788_);">
						</g>
					</mask>
					
						<linearGradient id="SVGID_00000111894268529588129960000008864221986894623374_" gradientUnits="userSpaceOnUse" x1="5250" y1="-3601.3259" x2="5250" y2="2789.4719" gradientTransform="matrix(1 0 0 -1 0 3002)">
						<stop  offset="0" style="stop-color:#FFFFFF"/>
						<stop  offset="1" style="stop-color:#000000"/>
					</linearGradient>
					
						<rect x="3498.96" y="-1.04" style="mask:url(#id2_1_);fill:url(#SVGID_00000111894268529588129960000008864221986894623374_);" width="3502.08" height="3002.08"/>
				</g>
			</mask>
			
				<linearGradient id="SVGID_00000120560697908225023040000003404772069080548265_" gradientUnits="userSpaceOnUse" x1="5250" y1="-3601.3259" x2="5250" y2="2789.4719" gradientTransform="matrix(1 0 0 -1 0 3002)">
				<stop  offset="0" style="stop-color:#FFFFFF"/>
				<stop  offset="1" style="stop-color:#FFFFFF"/>
			</linearGradient>
			
				<rect x="3498.96" y="-1.04" style="fill:url(#SVGID_00000120560697908225023040000003404772069080548265_);" width="3502.08" height="3002.08"/>
		</mask>
		<path style="fill:#FFFFFF;" d="M7000,0c-1663.13,0,759.47,2484.01-1401.88,2631.26C4861.57,2681.45,3984.6,2538.15,3500,3000
			c523.08-471.71,1441.3-295.57,2217.43-327c1420.38-57.52,991.89-1122.64,892.52-1904.51c-51.66-406.42,69.24-553.85,390.05-595.85
			L7000,0L7000,0z"/>
		<defs>
			
				<filter id="Adobe_OpacityMaskFilter_00000078745762001565941530000011154736012343336360_" filterUnits="userSpaceOnUse" x="0" y="0" width="3500" height="3000">
				<feColorMatrix  type="matrix" values="1 0 0 0 0  0 1 0 0 0  0 0 1 0 0  0 0 0 1 0"/>
			</filter>
		</defs>
		<mask maskUnits="userSpaceOnUse" x="0" y="0" width="3500" height="3000" id="id4_1_">
			<defs>
				
					<filter id="Adobe_OpacityMaskFilter_00000005962454068650097180000012290211600848061117_" filterUnits="userSpaceOnUse" x="-1.04" y="-1.04" width="3502.08" height="3002.08">
					<feFlood  style="flood-color:white;flood-opacity:1" result="back"/>
					<feBlend  in="SourceGraphic" in2="back" mode="normal"/>
				</filter>
			</defs>
			
				<mask maskUnits="userSpaceOnUse" x="-1.04" y="-1.04" width="3502.08" height="3002.08" id="id4_1_" style="filter:url(#Adobe_OpacityMaskFilter_00000078745762001565941530000011154736012343336360_);">
				<g style="filter:url(#Adobe_OpacityMaskFilter_00000005962454068650097180000012290211600848061117_);">
					<defs>
						
							<filter id="Adobe_OpacityMaskFilter_00000181088946667323738900000010062825763655102136_" filterUnits="userSpaceOnUse" x="-1.04" y="-1.04" width="3502.08" height="3002.08">
							<feFlood  style="flood-color:white;flood-opacity:1" result="back"/>
							<feBlend  in="SourceGraphic" in2="back" mode="normal"/>
						</filter>
					</defs>
					<mask maskUnits="userSpaceOnUse" x="-1.04" y="-1.04" width="3502.08" height="3002.08" id="id4_1_">
						<g style="filter:url(#Adobe_OpacityMaskFilter_00000181088946667323738900000010062825763655102136_);">
						</g>
					</mask>
					
						<linearGradient id="SVGID_00000070797784248268032560000011123091052551303843_" gradientUnits="userSpaceOnUse" x1="1750" y1="-6307.3408" x2="1750" y2="2288.7251" gradientTransform="matrix(1 0 0 -1 0 3002)">
						<stop  offset="0" style="stop-color:#FFFFFF"/>
						<stop  offset="1" style="stop-color:#000000"/>
					</linearGradient>
					
						<rect x="-1.04" y="-1.04" style="mask:url(#id4_1_);fill:url(#SVGID_00000070797784248268032560000011123091052551303843_);" width="3502.08" height="3002.08"/>
				</g>
			</mask>
			
				<linearGradient id="SVGID_00000124864929194459352300000012889033479601910953_" gradientUnits="userSpaceOnUse" x1="1750" y1="-6307.3408" x2="1750" y2="2288.7251" gradientTransform="matrix(1 0 0 -1 0 3002)">
				<stop  offset="0" style="stop-color:#FFFFFF"/>
				<stop  offset="1" style="stop-color:#FFFFFF"/>
			</linearGradient>
			
				<rect x="-1.04" y="-1.04" style="fill:url(#SVGID_00000124864929194459352300000012889033479601910953_);" width="3502.08" height="3002.08"/>
		</mask>
		<path style="fill:#FFFFFF;" d="M860.95,713.27c-792.52,606.92,894.01,2067.02-634.78,2267.52C160.88,2993.37,85.89,3000,0,3000
			h745.09c1295.25-229.29-962.95-2143.42,914.12-2472.1C2312.91,413.43,3110.43,458.67,3500,0c-16.99,16.2-34.47,31.65-52.41,46.39
			C2761.02,615.09,1458.94,255.33,860.95,713.27L860.95,713.27z"/>
		<defs>
			
				<filter id="Adobe_OpacityMaskFilter_00000121251263826132573520000017746307142616365954_" filterUnits="userSpaceOnUse" x="3500" y="0" width="3500" height="3000">
				<feColorMatrix  type="matrix" values="1 0 0 0 0  0 1 0 0 0  0 0 1 0 0  0 0 0 1 0"/>
			</filter>
		</defs>
		<mask maskUnits="userSpaceOnUse" x="3500" y="0" width="3500" height="3000" id="id6_1_">
			<defs>
				
					<filter id="Adobe_OpacityMaskFilter_00000157293791358547637390000010542052216775491254_" filterUnits="userSpaceOnUse" x="3498.96" y="-1.04" width="3502.08" height="3002.08">
					<feFlood  style="flood-color:white;flood-opacity:1" result="back"/>
					<feBlend  in="SourceGraphic" in2="back" mode="normal"/>
				</filter>
			</defs>
			
				<mask maskUnits="userSpaceOnUse" x="3498.96" y="-1.04" width="3502.08" height="3002.08" id="id6_1_" style="filter:url(#Adobe_OpacityMaskFilter_00000121251263826132573520000017746307142616365954_);">
				<g style="filter:url(#Adobe_OpacityMaskFilter_00000157293791358547637390000010542052216775491254_);">
					<defs>
						
							<filter id="Adobe_OpacityMaskFilter_00000145750182481252953200000016575458024797532570_" filterUnits="userSpaceOnUse" x="3498.96" y="-1.04" width="3502.08" height="3002.08">
							<feFlood  style="flood-color:white;flood-opacity:1" result="back"/>
							<feBlend  in="SourceGraphic" in2="back" mode="normal"/>
						</filter>
					</defs>
					<mask maskUnits="userSpaceOnUse" x="3498.96" y="-1.04" width="3502.08" height="3002.08" id="id6_1_">
						<g style="filter:url(#Adobe_OpacityMaskFilter_00000145750182481252953200000016575458024797532570_);">
						</g>
					</mask>
					
						<linearGradient id="SVGID_00000113345802102197448830000017549428863384266660_" gradientUnits="userSpaceOnUse" x1="5250" y1="9311.3408" x2="5250" y2="715.2749" gradientTransform="matrix(1 0 0 -1 0 3002)">
						<stop  offset="0" style="stop-color:#FFFFFF"/>
						<stop  offset="1" style="stop-color:#000000"/>
					</linearGradient>
					
						<rect x="3498.96" y="-1.04" style="mask:url(#id6_1_);fill:url(#SVGID_00000113345802102197448830000017549428863384266660_);" width="3502.08" height="3002.08"/>
				</g>
			</mask>
			
				<linearGradient id="SVGID_00000132776924741945504760000012292274041980488349_" gradientUnits="userSpaceOnUse" x1="5250" y1="9311.3408" x2="5250" y2="715.2749" gradientTransform="matrix(1 0 0 -1 0 3002)">
				<stop  offset="0" style="stop-color:#FFFFFF"/>
				<stop  offset="1" style="stop-color:#FFFFFF"/>
			</linearGradient>
			
				<rect x="3498.96" y="-1.04" style="fill:url(#SVGID_00000132776924741945504760000012292274041980488349_);" width="3502.08" height="3002.08"/>
		</mask>
		<path style="fill:#FFFFFF;" d="M6139.05,2286.72c792.52-606.91-894.01-2067.01,634.78-2267.51C6839.12,6.62,6914.11,0,7000,0
			h-745.09c-1295.25,229.29,962.95,2143.42-914.12,2472.09C4687.09,2586.56,3889.57,2541.33,3500,3000
			c16.99-16.2,34.47-31.65,52.41-46.39C4238.98,2384.91,5541.06,2744.67,6139.05,2286.72L6139.05,2286.72z"/>
	</g>
</g>
</svg>
