<?xml version="1.0" encoding="UTF-8"?>
<svg version="1.1" xmlns="http://www.w3.org/2000/svg" width="957" height="808">
<defs>
  <linearGradient id="logoGradient" x1="0%" y1="0%" x2="100%" y2="100%">
    <stop offset="0%" style="stop-color:#9333ea;stop-opacity:1" />
    <stop offset="100%" style="stop-color:#7c3aed;stop-opacity:1" />
  </linearGradient>
</defs>
<path d="M0 0 C26.56657484 0 26.56657484 0 35.875 1.75 C37.43456421 2.02287842 37.43456421 2.02287842 39.02563477 2.30126953 C42.02356586 2.83850991 45.01224968 3.40899359 48 4 C49.21840576 4.24024902 49.21840576 4.24024902 50.46142578 4.48535156 C67.6184334 7.9752892 83.63182393 13.61660616 99 22 C100.11632812 22.60070312 101.23265625 23.20140625 102.3828125 23.8203125 C108.56507288 27.27556078 113.90731489 31.07207823 119 36 C119.46148437 35.64808594 119.92296875 35.29617188 120.3984375 34.93359375 C121.80541978 33.86862495 123.21890451 32.8122236 124.63671875 31.76171875 C126.11378418 30.66063361 127.57739683 29.54098627 129.01953125 28.39453125 C143.65084732 17.29582122 161.33896089 11.23096245 179 7 C179.95229492 6.76941895 180.90458984 6.53883789 181.88574219 6.30126953 C201.4098836 1.64481674 218.58701175 0 239 0 C239 46.53 239 93.06 239 141 C230.09 141.99 230.09 141.99 221 143 C217.52971449 143.51185537 214.0797557 144.0331013 210.625 144.625 C206.37832651 145.34430626 202.32536975 146 198 146 C197.95875 147.175625 197.9175 148.35125 197.875 149.5625 C195.84232605 166.88088209 184.45564132 181.94188582 172.73828125 194.14453125 C169.98091533 197.01990142 167.33669484 199.96261704 164.6875 202.9375 C162.1386159 205.75256503 159.652686 208.4373255 156.6875 210.8125 C154.21159997 212.82776747 152.37944929 214.93133962 150.39453125 217.4140625 C148.23478158 219.8702484 145.7361147 221.89192569 143.2421875 224 C140.66786811 226.29625702 138.32148657 228.75732103 135.9375 231.25 C129.74920478 237.44771424 125.31960873 239.31293735 116.52734375 239.3984375 C109.23856324 238.24935618 104.99339931 233.33168157 100.125 228.25 C95.50841601 223.48219843 90.84619282 218.90479868 85.8125 214.57666016 C79.68696626 209.24817189 74.0937471 203.29043777 68.83984375 197.109375 C67.47443266 195.54393553 66.06308138 194.01831921 64.62890625 192.515625 C52.48616783 179.72601315 44.69366312 165.20706478 41 148 C27.32326959 144.33924471 14.2367078 142.77958847 0 141 C0 94.47 0 47.94 0 0 Z " fill="url(#logoGradient)" transform="translate(91,299)"/>
<path d="M0 0 C1.87890625 0.92578125 1.87890625 0.92578125 3.5625 2.3125 C4.57570313 3.13234375 4.57570313 3.13234375 5.609375 3.96875 C6.39828125 4.6390625 7.1871875 5.309375 8 6 C8.99515625 6.8353125 9.9903125 7.670625 11.015625 8.53125 C13.25024863 10.41273797 15.47667996 12.30347678 17.69921875 14.19921875 C20.64700107 16.70864366 23.62682565 19.17584756 26.625 21.625 C27.50285156 22.34300781 28.38070312 23.06101562 29.28515625 23.80078125 C31.19993785 25.3518921 33.12548894 26.88975435 35.05859375 28.41796875 C36.04988281 29.20816406 37.04117188 29.99835938 38.0625 30.8125 C38.96097656 31.52019531 39.85945313 32.22789062 40.78515625 32.95703125 C43.65200986 35.60141298 44.84223393 37.597255 45.28088379 41.49742126 C45.3013678 42.90043236 45.3013678 42.90043236 45.32226562 44.33178711 C45.34148071 45.39646713 45.3606958 46.46114716 45.38049316 47.55809021 C45.38899292 48.70294388 45.39749268 49.84779755 45.40625 51.02734375 C45.41765015 52.20841202 45.42905029 53.38948029 45.4407959 54.6063385 C45.45968191 57.10365216 45.47275833 59.6010155 45.48046875 62.09838867 C45.49991091 65.91998869 45.56197567 69.73945045 45.625 73.56054688 C45.6380577 75.98696639 45.64855958 78.41340129 45.65625 80.83984375 C45.6809436 81.98267319 45.70563721 83.12550262 45.7310791 84.30296326 C45.68835137 91.90452005 45.68835137 91.90452005 43.84042358 94.84541321 C40.43797124 98.00737297 37.22156972 98.59954381 32.7265625 98.48828125 C30.99599609 98.46411133 30.99599609 98.46411133 29.23046875 98.43945312 C28.04066406 98.39755859 26.85085937 98.35566406 25.625 98.3125 C23.80548828 98.27866211 23.80548828 98.27866211 21.94921875 98.24414062 C18.96487498 98.1853937 15.98307933 98.10329222 13 98 C12.9906543 96.90010742 12.98130859 95.80021484 12.97167969 94.66699219 C12.93177063 90.58145834 12.86600996 86.49667681 12.79248047 82.41162109 C12.76427603 80.64446689 12.74305882 78.87718666 12.72900391 77.10986328 C12.70756642 74.56737778 12.66091497 72.02640662 12.609375 69.484375 C12.60814636 68.69569031 12.60691772 67.90700562 12.60565186 67.09442139 C12.51304162 63.61676028 12.274124 61.39843921 10.28051758 58.50073242 C7.58498575 56.72689299 6.11005148 56.49716429 2.90234375 56.50390625 C1.93619141 56.50326172 0.97003906 56.50261719 -0.02539062 56.50195312 C-1.52875977 56.53192383 -1.52875977 56.53192383 -3.0625 56.5625 C-4.57166992 56.55186523 -4.57166992 56.55186523 -6.11132812 56.54101562 C-11.19351114 56.29834709 -11.19351114 56.29834709 -15.61651611 58.28594971 C-18.00262254 61.24218682 -17.48315295 64.95883816 -17.51171875 68.60546875 C-17.52966995 69.44467361 -17.54762115 70.28387848 -17.56611633 71.14851379 C-17.62028563 73.82812479 -17.65413573 76.50755702 -17.6875 79.1875 C-17.72066729 81.00458221 -17.7551564 82.8216408 -17.79101562 84.63867188 C-17.87601572 89.09231905 -17.94279502 93.54591259 -18 98 C-22.41644598 98.11608127 -26.83250017 98.1872132 -31.25 98.25 C-32.50425781 98.28351563 -33.75851563 98.31703125 -35.05078125 98.3515625 C-36.85869141 98.37089844 -36.85869141 98.37089844 -38.703125 98.390625 C-39.81333008 98.41157227 -40.92353516 98.43251953 -42.06738281 98.45410156 C-45.75523643 97.8830553 -46.69828018 96.88773813 -49 94 C-49.5146637 91.39541626 -49.5146637 91.39541626 -49.53344727 88.40869141 C-49.5492836 87.28717682 -49.56511993 86.16566223 -49.58143616 85.01016235 C-49.57647629 83.8028244 -49.57151642 82.59548645 -49.56640625 81.3515625 C-49.57260483 80.10627777 -49.57880341 78.86099304 -49.58518982 77.57797241 C-49.59229605 74.94301369 -49.59104462 72.30957968 -49.57641602 69.67480469 C-49.56266391 66.97800948 -49.56957237 64.28262818 -49.59692383 61.5859375 C-49.63380705 57.69487683 -49.63643145 53.80526453 -49.62890625 49.9140625 C-49.64216446 48.71077301 -49.65542267 47.50748352 -49.66908264 46.26773071 C-49.5655275 36.94909926 -49.5655275 36.94909926 -46.65185547 33.35351562 C-43.70419377 30.73747265 -40.71599614 28.23567555 -37.5625 25.875 C-32.4954232 21.99253087 -27.57379886 17.99343528 -22.75 13.8125 C-21.58870644 12.81361049 -20.42725181 11.8149082 -19.265625 10.81640625 C-17.20423022 9.04252179 -15.1541088 7.25813055 -13.109375 5.46484375 C-12.24828125 4.73394531 -11.3871875 4.00304687 -10.5 3.25 C-9.7678125 2.61578125 -9.035625 1.9815625 -8.28125 1.328125 C-5.30283088 -0.40588613 -3.39597736 -0.40138378 0 0 Z " fill="#FBFCFD" transform="translate(213,373)"/>
<path d="M0 0 C0 35.97 0 71.94 0 109 C-19 112 -19 112 -24 112 C-24.268125 110.741875 -24.53625 109.48375 -24.8125 108.1875 C-30.95057712 80.82537589 -44.88582192 64.42489532 -66.375 47.15234375 C-69.89741064 44.2641767 -73.26126 41.2182489 -76.62890625 38.15234375 C-80.04348111 35.05278733 -83.51874107 32.02422215 -87 29 C-85.52250544 24.71049966 -82.47904383 23.17328776 -78.6875 21.125 C-78.06085449 20.77912842 -77.43420898 20.43325684 -76.78857422 20.0769043 C-60.51241887 11.20998244 -44.24456378 6.27226066 -26.1875 2.6875 C-25.5201886 2.55230957 -24.8528772 2.41711914 -24.16534424 2.27783203 C-22.21027968 1.88534188 -20.25162477 1.51087448 -18.29296875 1.13671875 C-17.1536792 0.91717529 -16.01438965 0.69763184 -14.84057617 0.47143555 C-9.92809404 -0.1315778 -4.94935408 0 0 0 Z " fill="#FCFEFE" transform="translate(314,316)"/>
<path d="M0 0 C17 1 17 1 25 3 C26.340625 3.12375 27.68125 3.2475 29.0625 3.375 C33.46145159 3.79946024 37.67159075 4.81945369 41.9375 5.9375 C42.60080322 6.10749512 43.26410645 6.27749023 43.94750977 6.45263672 C46.94907304 7.26508411 48.76423652 7.76423652 51 10 C52.91318906 10.52446926 52.91318906 10.52446926 55.09375 10.859375 C60.06678203 11.88183039 64.08505269 13.79657324 68.5 16.25 C69.23468506 16.64823975 69.96937012 17.04647949 70.72631836 17.45678711 C76.00997827 20.35605011 81.12021676 23.45485833 86 27 C84.41892665 31.37915711 80.97823149 33.82460919 77.5 36.6875 C76.22176892 37.75935938 74.94442981 38.83228334 73.66796875 39.90625 C73.04067871 40.4321875 72.41338867 40.958125 71.76708984 41.5 C69.39971152 43.50955684 67.10372348 45.59182377 64.8125 47.6875 C61.47508685 50.72995356 58.04301973 53.57527113 54.5 56.375 C45.23046164 63.91631934 37.85733125 72.58871147 32 83 C31.61199219 83.67933594 31.22398437 84.35867188 30.82421875 85.05859375 C27.48950853 91.66363755 26.31221049 98.99164607 24.83203125 106.18359375 C24 110 24 110 23 112 C16 112 16 112 0 109 C0 73.03 0 37.06 0 0 Z " fill="#FCFDFE" transform="translate(108,316)"/>
<path d="M0 0 C6.435 -0.0928125 6.435 -0.0928125 13 -0.1875 C14.33675781 -0.21481201 15.67351563 -0.24212402 17.05078125 -0.27026367 C25.32188478 -0.32783947 31.54957527 -0.01912164 38 5.625 C40.55472034 9.93609057 40.84901985 13.10458765 40 18 C38.61019502 20.96912882 37.30342972 22.69657028 35 25 C35.94875 25.721875 36.8975 26.44375 37.875 27.1875 C41.85029341 30.53462204 42.81107487 33.26818633 43.375 38.4375 C42.91141578 42.84155005 41.94023969 44.69223035 39 48 C31.42597443 53.18370809 23.86055844 52.45876629 15 52.25 C7.575 52.12625 7.575 52.12625 0 52 C0 34.84 0 17.68 0 0 Z " fill="#3DB0B8" transform="translate(769,388)"/>
<path d="M0 0 C7.1775 -0.1546875 7.1775 -0.1546875 14.5 -0.3125 C15.99337891 -0.35802002 17.48675781 -0.40354004 19.02539062 -0.45043945 C25.82185633 -0.52127405 31.00535026 -0.49286445 36.59960938 3.62426758 C38.78968159 5.77577681 39.95243647 7.39594322 40.1953125 10.48046875 C40.17210937 11.37378906 40.14890625 12.26710938 40.125 13.1875 C40.10695313 14.08855469 40.08890625 14.98960937 40.0703125 15.91796875 C40.04710937 16.60503906 40.02390625 17.29210937 40 18 C39.34 18 38.68 18 38 18 C36.79371992 20.33214148 35.8345262 22.49642139 35 25 C35.969375 25.763125 36.93875 26.52625 37.9375 27.3125 C40.42086332 29.26748815 40.9521672 29.85650159 42 33 C42.41767184 39.47391355 41.80769392 42.72435709 37.5 47.75 C33.98668995 50.67775837 29.79511618 50.12926011 25.48828125 50.09765625 C24.84258179 50.09664917 24.19688232 50.09564209 23.53161621 50.09460449 C21.12522601 50.08938211 18.71886118 50.07542083 16.3125 50.0625 C10.929375 50.041875 5.54625 50.02125 0 50 C0 33.5 0 17 0 0 Z " fill="#32ACB3" transform="translate(821,389)"/>
<path d="M0 0 C0 17.16 0 34.32 0 52 C-3.96 52 -7.92 52 -12 52 C-12.33 43.09 -12.66 34.18 -13 25 C-14.8253125 28.2175 -14.8253125 28.2175 -16.6875 31.5 C-17.42568077 32.78466112 -18.16498153 34.06868056 -18.90625 35.3515625 C-20.12230652 37.45903188 -21.30942419 39.57111805 -22.46875 41.7109375 C-23.6875 43.875 -23.6875 43.875 -26 47 C-28.42260742 47.49609375 -28.42260742 47.49609375 -31 47 C-32.8527832 44.98046875 -32.8527832 44.98046875 -34.55078125 42.1875 C-35.3847644 40.84751953 -35.3847644 40.84751953 -36.2355957 39.48046875 C-36.92097412 38.33191406 -37.60635254 37.18335938 -38.3125 36 C-40.519375 32.37 -42.72625 28.74 -45 25 C-45.33 33.91 -45.66 42.82 -46 52 C-49.63 52 -53.26 52 -57 52 C-57 35.17 -57 18.34 -57 1 C-53.37 1 -49.74 1 -46 1 C-45.195625 2.505625 -44.39125 4.01125 -43.5625 5.5625 C-40.90350155 10.43099954 -38.14573376 15.23156381 -35.3125 20 C-34.93230713 20.64654541 -34.55211426 21.29309082 -34.16040039 21.95922852 C-32.34310319 24.99445471 -30.56241795 27.57028602 -28 30 C-27.73372803 29.51756836 -27.46745605 29.03513672 -27.19311523 28.53808594 C-26.81872314 27.86036133 -26.44433105 27.18263672 -26.05859375 26.484375 C-25.64359619 25.73269043 -25.22859863 24.98100586 -24.80102539 24.20654297 C-23.88804518 22.56170735 -22.96920109 20.92011359 -22.04467773 19.28173828 C-19.9743932 15.60887469 -17.9395719 11.95839461 -16.1640625 8.1328125 C-15.63554687 7.05773437 -15.10703125 5.98265625 -14.5625 4.875 C-14.13066406 3.92367188 -13.69882812 2.97234375 -13.25390625 1.9921875 C-11 0 -11 0 0 0 Z " fill="#2A447E" transform="translate(412,388)"/>
<path d="M0 0 C3.63 0 7.26 0 11 0 C11 1.32 11 2.64 11 4 C11.763125 3.34 12.52625 2.68 13.3125 2 C17.85653987 -1.01500276 22.75632836 -0.74800556 28 0 C34.22245358 2.07027427 38.09827921 6.73990722 41.3125 12.25 C43.20310236 19.81240943 42.3863667 26.00493669 38.52734375 32.79296875 C36.11741087 36.27535258 34.06761657 38.59663666 30 40 C23.75870523 40.70871845 18.67008013 40.83504007 13 38 C12.67 43.28 12.34 48.56 12 54 C8.04 54 4.08 54 0 54 C0 36.18 0 18.36 0 0 Z " fill="#2A4D80" transform="translate(521,400)"/>
<path d="M0 0 C12.54 0 25.08 0 38 0 C38 3.3 38 6.6 38 10 C29.42 10 20.84 10 12 10 C12 13.63 12 17.26 12 21 C19.59 21 27.18 21 35 21 C35 23.97 35 26.94 35 30 C27.41 30 19.82 30 12 30 C12 33.96 12 37.92 12 42 C20.91 42 29.82 42 39 42 C39 45.3 39 48.6 39 52 C26.13 52 13.26 52 0 52 C0 34.84 0 17.68 0 0 Z " fill="#223E7A" transform="translate(440,388)"/>
<path d="M0 0 C3.98438156 2.73456376 6.84850829 5.64105293 9 10 C9.83562515 16.54573033 10.1128447 23.56043121 6 29 C0.68853263 34.41638524 -4.057044 37.27335575 -11.8125 37.375 C-18.76999489 37.24663294 -23.38848374 35.61151626 -28.3125 30.6875 C-31.95741663 24.88263277 -33.98272872 19.82525288 -33 13 C-30.83257363 6.26957073 -26.90849994 1.81193545 -21 -2 C-13.79122343 -4.22760478 -6.58067924 -3.66999419 0 0 Z " fill="#348FA6" transform="translate(699,403)"/>
<path d="M0 0 C4.39982991 3.05861782 6.99747472 6.65063492 8.2890625 11.8984375 C8.64248731 16.55168062 8.57192708 21.17285387 8.4765625 25.8359375 C8.45625977 27.72022461 8.45625977 27.72022461 8.43554688 29.64257812 C8.40034841 32.72831029 8.35110555 35.81314774 8.2890625 38.8984375 C4.6590625 38.8984375 1.0290625 38.8984375 -2.7109375 38.8984375 C-2.7109375 37.9084375 -2.7109375 36.9184375 -2.7109375 35.8984375 C-3.4534375 36.3934375 -4.1959375 36.8884375 -4.9609375 37.3984375 C-9.93038757 39.84184882 -15.33707082 39.76055515 -20.7109375 38.8984375 C-23.89597721 37.46841967 -25.83269239 35.84222552 -27.7109375 32.8984375 C-29.37606454 28.22775616 -29.2287493 25.01691099 -27.1484375 20.5234375 C-23.45514035 16.54604057 -20.2801464 15.01731696 -14.84375 14.60546875 C-13.50749448 14.62511957 -12.17138424 14.66047004 -10.8359375 14.7109375 C-10.14757812 14.72447266 -9.45921875 14.73800781 -8.75 14.75195312 C-7.06996749 14.7869538 -5.390344 14.84074796 -3.7109375 14.8984375 C-5.46548135 11.71609645 -5.46548135 11.71609645 -7.7109375 8.8984375 C-9.71084266 8.69853987 -9.71084266 8.69853987 -12.0234375 8.7109375 C-12.80332031 8.69675781 -13.58320312 8.68257813 -14.38671875 8.66796875 C-16.93024966 8.92018442 -18.4662883 9.7275174 -20.7109375 10.8984375 C-21.7009375 10.8984375 -22.6909375 10.8984375 -23.7109375 10.8984375 C-25.56611865 8.51320459 -26.65664216 6.82145832 -26.8359375 3.7734375 C-22.3987697 -3.62184217 -6.92208788 -2.81272159 0 0 Z " fill="#2C638B" transform="translate(593.7109375,401.1015625)"/>
<path d="M0 0 C15.86660398 2.43821667 31.35244293 6.40004184 46 13 C46.76763672 13.3407959 47.53527344 13.6815918 48.32617188 14.03271484 C57.79454739 18.2635443 66.83654327 22.51296742 75 29 C75.825 29.62519531 76.65 30.25039063 77.5 30.89453125 C83.46069815 35.50135131 88.79088864 40.56440553 94 46 C93.505 46.99 93.505 46.99 93 48 C92.56171875 47.64808594 92.1234375 47.29617188 91.671875 46.93359375 C68.55553685 28.93855816 37.58095249 21.25304737 8.96020508 18.0012207 C7.94724365 17.88480225 6.93428223 17.76838379 5.890625 17.6484375 C4.97313477 17.54708496 4.05564453 17.44573242 3.11035156 17.34130859 C1 17 1 17 0 16 C-0.07319621 13.30345146 -0.09242537 10.63308542 -0.0625 7.9375 C-0.05798828 7.17888672 -0.05347656 6.42027344 -0.04882812 5.63867188 C-0.0370068 3.75908129 -0.01907078 1.87953101 0 0 Z " fill="#2687A2" transform="translate(110,275)"/>
<path d="M0 0 C0 5.28 0 10.56 0 16 C-1.30710937 16.18175781 -2.61421875 16.36351562 -3.9609375 16.55078125 C-8.71196493 17.21490336 -13.45850517 17.90789314 -18.20507812 18.60302734 C-20.61889098 18.94586974 -23.03313777 19.25578281 -25.453125 19.55078125 C-49.61893679 22.72811708 -72.90548891 32.37660265 -93 46 C-85.58675474 28.38842286 -60.47941869 17.77846503 -44.05859375 10.90234375 C-35.07502 7.26468847 -26.04977008 4.27316498 -16.625 2 C-15.76366455 1.79221924 -14.9023291 1.58443848 -14.01489258 1.37036133 C-9.03413492 0.24808234 -5.30818199 0 0 0 Z " fill="#1FB1B6" transform="translate(311,276)"/>
<path d="M0 0 C1.03125 0.495 2.0625 0.99 3.125 1.5 C2.795 4.14 2.465 6.78 2.125 9.5 C1.01125 9.335 -0.1025 9.17 -1.25 9 C-6.13010338 8.37905495 -10.96361948 8.40942126 -15.875 8.5 C-15.545 10.15 -15.215 11.8 -14.875 13.5 C-13.57175781 13.64695312 -13.57175781 13.64695312 -12.2421875 13.796875 C0.01188946 15.38688946 0.01188946 15.38688946 5.125 20.5 C5.55792278 24.99573651 5.60587828 29.170513 4.0625 33.4375 C0.49017568 37.24029685 -3.97187675 38.63320111 -9.06640625 38.8984375 C-10.52343727 38.90629211 -11.98063427 38.89830985 -13.4375 38.875 C-14.16646484 38.88660156 -14.89542969 38.89820313 -15.64648438 38.91015625 C-20.42494 38.88435001 -23.73498987 38.11541472 -27.875 35.5 C-28.205 34.84 -28.535 34.18 -28.875 33.5 C-27.93921005 31.14018187 -26.94152192 28.80368736 -25.875 26.5 C-25.00875 26.83 -24.1425 27.16 -23.25 27.5 C-17.3120324 29.24573789 -10.99715931 28.6528417 -4.875 28.5 C-5.205 27.51 -5.535 26.52 -5.875 25.5 C-8.29306939 24.71584186 -10.58897893 24.09940647 -13.0625 23.5625 C-18.81656138 22.31064079 -23.58196549 20.79303451 -27.875 16.5 C-28.40861055 12.45218282 -28.78292652 8.2904311 -26.8984375 4.57421875 C-20.39232897 -3.46860866 -9.20338914 -3.4801346 0 0 Z " fill="#29467C" transform="translate(510.875,401.5)"/>
<path d="M0 0 C0 0.66 0 1.32 0 2 C0.8971875 2.4021875 0.8971875 2.4021875 1.8125 2.8125 C4.01819033 4.00987475 5.43583187 5.04478984 7 7 C7 7.99 7 8.98 7 10 C1.62562066 13.05362463 1.62562066 13.05362463 -1.1875 12.8125 C-3 12 -3 12 -6 10 C-9.06781172 9.46327419 -11.92977909 9.47811796 -15 10 C-17.84347511 12.20369321 -18.77025991 13.81565021 -19.453125 17.3359375 C-19.71986283 19.56109259 -19.90246677 21.76161247 -20 24 C-19.34 24 -18.68 24 -18 24 C-17.443125 24.825 -16.88625 25.65 -16.3125 26.5 C-14.1659304 29.33451237 -14.1659304 29.33451237 -10.5625 29.5625 C-6.91466731 29.29717495 -6.91466731 29.29717495 -4.4375 26.875 C-3.633125 26.25625 -2.82875 25.6375 -2 25 C1.66251847 25.73250369 3.89105807 26.92737205 7 29 C5.64231796 33.88765533 3.32965579 35.52591098 -1 38 C-7.44189274 40.14729758 -15.39263472 40.18932451 -21.5625 37.375 C-27.16588795 31.91528866 -31.2896621 27.4192734 -31.5 19.3125 C-31.40405408 13.49577837 -30.80160201 9.91491883 -26.8125 5.62109375 C-26.214375 5.08613281 -25.61625 4.55117188 -25 4 C-24.443125 3.47535156 -23.88625 2.95070313 -23.3125 2.41015625 C-16.90816197 -2.57252916 -7.4844032 -2.49480107 0 0 Z " fill="#307697" transform="translate(638,401)"/>
<path d="M0 0 C1.98 0 3.96 0 6 0 C6.07473903 4.81970922 6.12887722 9.63907335 6.16479492 14.45922852 C6.17978456 16.09535609 6.20018332 17.73144415 6.22631836 19.36743164 C6.51968476 38.21766076 6.51968476 38.21766076 1.25 46.875 C-4.91819088 52.70051361 -11.21655804 52.37077622 -19.37890625 52.49609375 C-24.65105848 51.77380321 -28.42315037 49.17548875 -31.75 45.0625 C-35.73710865 39.63560211 -36.28514821 35.26523536 -36.1953125 28.63671875 C-36.1924826 27.84473587 -36.18965271 27.05275299 -36.18673706 26.23677063 C-36.17558863 23.72019001 -36.15049422 21.20397211 -36.125 18.6875 C-36.11496329 16.97591662 -36.10583864 15.26432763 -36.09765625 13.55273438 C-36.07566681 9.36835094 -36.04117408 5.18423686 -36 1 C-34.02 1 -32.04 1 -30 1 C-29.98541748 1.99330322 -29.97083496 2.98660645 -29.95581055 4.01000977 C-29.89751838 7.72097461 -29.8202897 11.43135215 -29.73754883 15.1418457 C-29.70444408 16.74298519 -29.67636779 18.34423732 -29.65356445 19.94555664 C-29.61975018 22.25715817 -29.56742549 24.56774078 -29.51171875 26.87890625 C-29.50532883 27.58648575 -29.4989389 28.29406525 -29.49235535 29.02308655 C-29.32692361 34.70773516 -28.05669747 39.31735112 -24.5625 43.875 C-20.66519004 46.68106317 -15.63043201 46.601789 -11 46 C-7.17528515 44.76535521 -3.85755608 43.62966727 -1.921875 39.95117188 C-0.7213165 36.10785856 -0.64475025 32.40726248 -0.5859375 28.41796875 C-0.56657135 27.60378983 -0.5472052 26.7896109 -0.5272522 25.95075989 C-0.46771248 23.36311148 -0.42117417 20.77541797 -0.375 18.1875 C-0.3367966 16.42771551 -0.2977435 14.66794926 -0.2578125 12.90820312 C-0.16203218 8.60561766 -0.07790715 4.3029447 0 0 Z " fill="#3FA9B4" transform="translate(751,388)"/>
<path d="M0 0 C3.87575108 -0.1081605 7.74846959 -0.1874032 11.625 -0.25 C13.26662109 -0.30027344 13.26662109 -0.30027344 14.94140625 -0.3515625 C21.29357779 -0.42855852 25.18340801 -0.30698669 30 4 C31.56918492 5.56918492 31.28258943 7.14085159 31.375 9.3125 C31.35123883 13.04894365 31.31901099 13.66419896 28.625 16.5 C24.83401636 18.66627636 22.92809997 19.12067421 18.5546875 19.09765625 C16.94013672 19.09282227 16.94013672 19.09282227 15.29296875 19.08789062 C14.16503906 19.07951172 13.03710938 19.07113281 11.875 19.0625 C10.73933594 19.05798828 9.60367188 19.05347656 8.43359375 19.04882812 C5.62237353 19.03701628 2.81118028 19.01908041 0 19 C0 12.73 0 6.46 0 0 Z " fill="#F1FAFA" transform="translate(826,416)"/>
<path d="M0 0 C3.70877584 -0.08114826 7.41576511 -0.14057594 11.125 -0.1875 C12.17171875 -0.21263672 13.2184375 -0.23777344 14.296875 -0.26367188 C19.91167825 -0.31697697 24.23349467 -0.35218162 29 3 C31.34168764 6.51253146 31.49623677 7.86469356 31 12 C28.77984086 15.4888215 26.82483387 17.4834899 23 19 C20.43457031 19.22705078 20.43457031 19.22705078 17.578125 19.1953125 C16.04091797 19.18564453 16.04091797 19.18564453 14.47265625 19.17578125 C13.40917969 19.15902344 12.34570312 19.14226562 11.25 19.125 C9.63158203 19.11146484 9.63158203 19.11146484 7.98046875 19.09765625 C5.32021751 19.0741142 2.66008051 19.03824397 0 19 C0 12.73 0 6.46 0 0 Z " fill="#F3FBFC" transform="translate(775,416)"/>
<path d="M0 0 C3.63 0 7.26 0 11 0 C11 13.2 11 26.4 11 40 C7.04 40 3.08 40 -1 40 C-1.02464775 34.46411467 -1.04283496 28.928261 -1.05493164 23.39233398 C-1.05997244 21.5075627 -1.06680498 19.62279535 -1.07543945 17.73803711 C-1.08751617 15.03498364 -1.09323068 12.33198169 -1.09765625 9.62890625 C-1.10281754 8.78099014 -1.10797882 7.93307404 -1.11329651 7.0594635 C-1.11349195 5.03928932 -1.06206211 3.01922066 -1 1 C-0.67 0.67 -0.34 0.34 0 0 Z " fill="#3B89A2" transform="translate(650,400)"/>
<path d="M0 0 C3.63 0 7.26 0 11 0 C12 1 12 1 12.11352539 4.69360352 C12.11336624 6.33871292 12.10766988 7.98382731 12.09765625 9.62890625 C12.0962413 10.49313705 12.09482635 11.35736786 12.09336853 12.24778748 C12.08775239 15.01939292 12.07519719 17.7909188 12.0625 20.5625 C12.05748708 22.4368478 12.05292381 24.31119685 12.04882812 26.18554688 C12.03777772 30.79039544 12.0205023 35.39518421 12 40 C8.04 40 4.08 40 0 40 C0 26.8 0 13.6 0 0 Z " fill="#30497F" transform="translate(420,400)"/>
<path d="M0 0 C3.72994296 -0.10802731 7.45675221 -0.18733597 11.1875 -0.25 C12.77014648 -0.30027344 12.77014648 -0.30027344 14.38476562 -0.3515625 C22.18641299 -0.450006 22.18641299 -0.450006 26.19921875 1.76953125 C28.34569331 4.42817979 28.59673514 6.51577757 28.6640625 9.90234375 C27.52368545 13.5045936 26.09662938 14.80702682 23 17 C19.04450795 17.61146067 15.17769623 17.47093785 11.1875 17.3125 C10.11306641 17.28994141 9.03863281 17.26738281 7.93164062 17.24414062 C5.28716112 17.18537441 2.64340067 17.09569833 0 17 C0 11.39 0 5.78 0 0 Z " fill="#F7FDFD" transform="translate(775,394)"/>
<path d="M0 0 C3.39631472 -0.08107913 6.79068616 -0.14053944 10.1875 -0.1875 C11.14720703 -0.21263672 12.10691406 -0.23777344 13.09570312 -0.26367188 C21.94572693 -0.35554063 21.94572693 -0.35554063 26 3 C28 5 28 5 28.375 7.8125 C27.9175983 11.70041449 26.69507803 13.22565497 24 16 C21.49502996 17.25248502 19.79146726 17.11374406 16.9921875 17.09765625 C16.00605469 17.09443359 15.01992188 17.09121094 14.00390625 17.08789062 C12.97136719 17.07951172 11.93882812 17.07113281 10.875 17.0625 C9.31458984 17.05573242 9.31458984 17.05573242 7.72265625 17.04882812 C5.14841313 17.03701967 2.57419947 17.01908385 0 17 C0 11.39 0 5.78 0 0 Z " fill="#F7FEFE" transform="translate(827,394)"/>
<path d="M0 0 C2.30391608 1.77593531 3.33452918 3.18929376 5 5.6875 C5.1953125 8.16796875 5.1953125 8.16796875 5.125 10.875 C5.10695313 11.77605469 5.08890625 12.67710937 5.0703125 13.60546875 C5.04710937 14.29253906 5.02390625 14.97960937 5 15.6875 C4.34 15.6875 3.68 15.6875 3 15.6875 C1.79371992 18.01964148 0.8345262 20.18392139 0 22.6875 C0.99 23.6775 1.98 24.6675 3 25.6875 C-3.75 26.8125 -3.75 26.8125 -6 25.6875 C-7.81171098 25.53443099 -9.6283794 25.43803339 -11.4453125 25.37109375 C-12.52167969 25.32919922 -13.59804688 25.28730469 -14.70703125 25.24414062 C-15.83496094 25.20482422 -16.96289062 25.16550781 -18.125 25.125 C-19.26066406 25.08181641 -20.39632812 25.03863281 -21.56640625 24.99414062 C-24.37747768 24.8878396 -27.18863945 24.78580595 -30 24.6875 C-30 24.3575 -30 24.0275 -30 23.6875 C-23.4 23.6875 -16.8 23.6875 -10 23.6875 C-10 23.0275 -10 22.3675 -10 21.6875 C-16.6 21.6875 -23.2 21.6875 -30 21.6875 C-30.020625 18.449375 -30.04125 15.21125 -30.0625 11.875 C-30.071604 10.85817139 -30.08070801 9.84134277 -30.09008789 8.79370117 C-30.09258545 7.98908447 -30.09508301 7.18446777 -30.09765625 6.35546875 C-30.10289307 5.53328857 -30.10812988 4.7111084 -30.11352539 3.86401367 C-30 1.6875 -30 1.6875 -29 -1.3125 C-20.30018761 -3.00799059 -7.88293208 -4.84320366 0 0 Z M-29 2.6875 C-29 8.2975 -29 13.9075 -29 19.6875 C-25.43668623 19.79557017 -21.8766578 19.87485316 -18.3125 19.9375 C-17.30509766 19.97101563 -16.29769531 20.00453125 -15.25976562 20.0390625 C-9.26302403 20.14992932 -9.26302403 20.14992932 -3.85546875 17.796875 C-1.61178868 15.24616503 -1.05621172 14.20464779 -0.6875 10.8125 C-0.72583139 7.6122056 -0.72583139 7.6122056 -2.8125 5.375 C-6.15357846 2.79759662 -8.80109338 2.56508238 -12.88671875 2.58984375 C-13.82451172 2.59306641 -14.76230469 2.59628906 -15.72851562 2.59960938 C-16.70498047 2.60798828 -17.68144531 2.61636719 -18.6875 2.625 C-19.67556641 2.62951172 -20.66363281 2.63402344 -21.68164062 2.63867188 C-24.12111958 2.6504568 -26.56056741 2.66839217 -29 2.6875 Z " fill="#43B4BA" transform="translate(856,391.3125)"/>
<path d="M0 0 C0 46.53 0 93.06 0 141 C-3.96 141 -7.92 141 -12 141 C-8 139 -8 139 -2 139 C-2 93.46 -2 47.92 -2 1 C-2.99 1.33 -3.98 1.66 -5 2 C-6.59072667 2.13570843 -8.18577 2.22405125 -9.78125 2.28125 C-10.70550781 2.31863281 -11.62976563 2.35601562 -12.58203125 2.39453125 C-15.5 2.5 -15.5 2.5 -18.41796875 2.60546875 C-19.34222656 2.64285156 -20.26648438 2.68023437 -21.21875 2.71875 C-22.4862207 2.76418945 -22.4862207 2.76418945 -23.77929688 2.81054688 C-26.17273927 2.92733427 -26.17273927 2.92733427 -29 4 C-30.66364088 4.17704286 -32.33119238 4.31864597 -34 4.4375 C-38.91525383 4.84167207 -43.66274372 5.61014312 -48.4921875 6.59765625 C-51.03903752 7.00626303 -53.42531411 7.06921199 -56 7 C-53.06357976 5.38137756 -50.44269472 4.5580637 -47.1484375 3.96484375 C-46.21386719 3.79533203 -45.27929688 3.62582031 -44.31640625 3.45117188 C-43.34574219 3.28166016 -42.37507813 3.11214844 -41.375 2.9375 C-40.42753906 2.76412109 -39.48007812 2.59074219 -38.50390625 2.41210938 C-25.39369528 0.0716408 -13.66650515 0 0 0 Z " fill="#32A9AE" transform="translate(330,299)"/>
<path d="M0 0 C4.44649022 2.38204833 4.44649022 2.38204833 6 5 C6.48705972 8.3938736 6.35673975 11.59775979 6 15 C5.34 15 4.68 15 4 15 C3.731875 15.61875 3.46375 16.2375 3.1875 16.875 C2 19 2 19 -1 21 C-5.20851192 21.54554784 -7.29799985 21.43314903 -10.9375 19.1875 C-13.95104347 14.53020555 -13.98699035 10.39608656 -13 5 C-9.7899485 -0.11601958 -5.8051614 -1.35793249 0 0 Z " fill="#F0F8FA" transform="translate(691,410)"/>
<path d="M0 0 C2.16015625 0.50390625 2.16015625 0.50390625 5.22265625 2.37890625 C7.95391709 6.78416567 8.16203063 10.45313459 7.16015625 15.50390625 C5.22265625 18.62890625 5.22265625 18.62890625 2.16015625 20.50390625 C-0.99192158 21.17694778 -3.69764764 21.25568401 -6.83984375 20.50390625 C-10.14336674 17.36555941 -11.6950013 14.75920745 -12.21484375 10.25390625 C-11.45557689 2.66123768 -7.33047071 -0.57517884 0 0 Z " fill="#F4F7FA" transform="translate(543.83984375,409.49609375)"/>
<path d="M0 0 C12.54 0 25.08 0 38 0 C38 0.66 38 1.32 38 2 C26.12 2 14.24 2 2 2 C2 17.84 2 33.68 2 50 C13.88 50 25.76 50 38 50 C38 48.02 38 46.04 38 44 C29.42 44 20.84 44 12 44 C12 43.67 12 43.34 12 43 C20.91 43 29.82 43 39 43 C39 45.97 39 48.94 39 52 C26.13 52 13.26 52 0 52 C0 34.84 0 17.68 0 0 Z " fill="#4E6189" transform="translate(440,388)"/>
<path d="M0 0 C0 35.97 0 71.94 0 109 C-2.64 109 -5.28 109 -8 109 C-5 107 -5 107 -2 107 C-2.33 106.01 -2.66 105.02 -3 104 C-3.07715605 102.59081806 -3.09791286 101.17812813 -3.08229065 99.766922 C-3.07525116 98.90455429 -3.06821167 98.04218658 -3.06095886 97.15368652 C-3.04801285 96.21069702 -3.03506683 95.26770752 -3.02172852 94.29614258 C-3.01212097 93.3008403 -3.00251343 92.30553802 -2.99261475 91.28007507 C-2.95959024 87.98482262 -2.9192709 84.6897013 -2.87890625 81.39453125 C-2.85460852 79.11195846 -2.83076479 76.8293808 -2.80735779 74.54679871 C-2.74448241 68.5347031 -2.67542546 62.52269364 -2.60510254 56.51068115 C-2.53445033 50.37760343 -2.46961473 44.24446457 -2.40429688 38.11132812 C-2.27524 26.07415155 -2.13965587 14.03705794 -2 2 C-3.9587043 2.14076315 -5.91696093 2.2877676 -7.875 2.4375 C-8.96554687 2.51871094 -10.05609375 2.59992188 -11.1796875 2.68359375 C-13.94728971 2.83001703 -13.94728971 2.83001703 -16 4 C-18.04055005 4.07065617 -20.08334257 4.08421976 -22.125 4.0625 C-23.22070312 4.05347656 -24.31640625 4.04445313 -25.4453125 4.03515625 C-26.70988281 4.01775391 -26.70988281 4.01775391 -28 4 C-28 3.67 -28 3.34 -28 3 C-25.39777117 2.487486 -22.79399378 1.98995903 -20.1875 1.5 C-19.46884766 1.35691406 -18.75019531 1.21382813 -18.00976562 1.06640625 C-11.73444989 -0.09466538 -6.64492312 0 0 0 Z " fill="#CDF1F3" transform="translate(314,316)"/>
<path d="M0 0 C1 1 1 1 1.12304783 2.8409586 C1.12166514 4.05634264 1.12166514 4.05634264 1.12025452 5.29627991 C1.12162918 6.22321152 1.12300385 7.15014313 1.12442017 8.10516357 C1.11902725 9.64264252 1.11902725 9.64264252 1.11352539 11.21118164 C1.11367142 12.28422043 1.11381744 13.35725922 1.1139679 14.46281433 C1.11326824 18.02861516 1.10547338 21.59436449 1.09765625 25.16015625 C1.09579226 27.62495393 1.09436827 30.08975199 1.09336853 32.55455017 C1.08954187 39.05653905 1.07971032 45.55850575 1.06866455 52.06048584 C1.05791748 58.68940817 1.05387159 65.31833693 1.04882812 71.94726562 C1.03808819 84.96485324 1.02120097 97.98242544 1 111 C0.67 111 0.34 111 0 111 C0 75.03 0 39.06 0 2 C-13.74944583 3.54403382 -13.74944583 3.54403382 -27.1875 6.125 C-32.22559954 7.30013984 -36.78204526 8.24966291 -42 8 C-36.10574125 2.10574125 -22.66185095 1.88793618 -14.8125 0.875 C-14.14742432 0.78734375 -13.48234863 0.6996875 -12.79711914 0.609375 C-8.50885634 0.08086752 -4.31903054 -0.16463903 0 0 Z " fill="#1FA4AA" transform="translate(314,314)"/>
<path d="M0 0 C2 1.125 2 1.125 3 3 C3.38601984 6.08815875 3.47901666 8.10184376 2 10.875 C-1.21820324 12.68523932 -4.40216898 12.53967465 -8 12 C-10 10.875 -10 10.875 -11 9 C-11.38601984 5.91184125 -11.47901666 3.89815624 -10 1.125 C-6.78179676 -0.68523932 -3.59783102 -0.53967465 0 0 Z " fill="#3B94A6" transform="translate(659,383)"/>
<path d="M0 0 C2.4375 1.125 2.4375 1.125 4 3 C4.45535315 6.12242157 4.49686954 8.06836961 3 10.875 C-0.21775381 12.68498652 -3.40823552 12.67345584 -7 12 C-9.49117823 9.89806836 -9.90683974 8.63659511 -10.375 5.4375 C-10 3 -10 3 -8.9375 1.1875 C-5.89729821 -0.67584949 -3.48171989 -0.36649683 0 0 Z " fill="#254078" transform="translate(429,383)"/>
<path d="M0 0 C0.99773438 0.02320313 1.99546875 0.04640625 3.0234375 0.0703125 C4.52777344 0.09738281 4.52777344 0.09738281 6.0625 0.125 C6.83335937 0.14820313 7.60421875 0.17140625 8.3984375 0.1953125 C8.0859375 3.5703125 8.0859375 3.5703125 7.3984375 7.1953125 C3.32994341 9.90764189 1.23366966 9.50231137 -3.6015625 9.1953125 C-4.2615625 8.5353125 -4.9215625 7.8753125 -5.6015625 7.1953125 C-5.18473173 3.0270048 -4.61912383 0.34678107 0 0 Z " fill="#F4F9FB" transform="translate(581.6015625,422.8046875)"/>
<path d="M0 0 C5.01377456 3.27430175 8.717785 6.69991217 12.51953125 11.328125 C13.91416916 13.11256099 13.91416916 13.11256099 16 14 C16 14.66 16 15.32 16 16 C16.66 16 17.32 16 18 16 C18 16.66 18 17.32 18 18 C24.35287911 19.68545772 29.88238138 20.87887935 36 18 C36.99 18.33 37.98 18.66 39 19 C33.83164674 22.26422311 28.96693429 22.92778552 23 22 C16.75383972 19.76164511 12.66644713 15.07516423 8.125 10.4375 C7.34125 9.65697266 6.5575 8.87644531 5.75 8.07226562 C0 2.26716981 0 2.26716981 0 0 Z " fill="#2B4579" transform="translate(182,516)"/>
<path d="M0 0 C0 0.33 0 0.66 0 1 C-0.93066284 1.03758423 -0.93066284 1.03758423 -1.88012695 1.07592773 C-4.69112397 1.19196721 -7.50179241 1.31465759 -10.3125 1.4375 C-11.28896484 1.47681641 -12.26542969 1.51613281 -13.27148438 1.55664062 C-14.20927734 1.59853516 -15.14707031 1.64042969 -16.11328125 1.68359375 C-17.40939331 1.73858032 -17.40939331 1.73858032 -18.73168945 1.79467773 C-21.1647826 1.92747354 -21.1647826 1.92747354 -24 3 C-25.66364088 3.17704286 -27.33119238 3.31864597 -29 3.4375 C-33.91525383 3.84167207 -38.66274372 4.61014312 -43.4921875 5.59765625 C-46.03903752 6.00626303 -48.42531411 6.06921199 -51 6 C-36.23088172 -1.96719408 -16.19022587 -0.52816295 0 0 Z " fill="#30AEB0" transform="translate(325,300)"/>
<path d="M0 0 C0 0.66 0 1.32 0 2 C-1.00675781 2.09796875 -2.01351562 2.1959375 -3.05078125 2.296875 C-12.03657569 3.23273766 -20.7723677 4.63868678 -29.57739258 6.67871094 C-33.81190284 7.63897497 -37.6223589 8.20945651 -42 8 C-36.10574125 2.10574125 -22.66185095 1.88793618 -14.8125 0.875 C-14.14742432 0.78734375 -13.48234863 0.6996875 -12.79711914 0.609375 C-8.50780491 0.08073794 -4.31907427 -0.07842677 0 0 Z " fill="#2AAAAC" transform="translate(314,314)"/>
<path d="M0 0 C6.93 0 13.86 0 21 0 C20.67 0.99 20.34 1.98 20 3 C13.4 3 6.8 3 0 3 C0 2.01 0 1.02 0 0 Z " fill="#29A7AF" transform="translate(775,390)"/>
<path d="M0 0 C0.66 0.33 1.32 0.66 2 1 C1.01 2.485 1.01 2.485 0 4 C0.99 4.33 1.98 4.66 3 5 C-1.95 8.3 -6.9 11.6 -12 15 C-12 12 -12 12 -9.375 9.08203125 C-8.25750594 7.98449244 -7.13214357 6.89492105 -6 5.8125 C-5.42765625 5.25369141 -4.8553125 4.69488281 -4.265625 4.11914062 C-2.85037212 2.73926907 -1.42602845 1.36873266 0 0 Z " fill="#4AA8B1" transform="translate(231,307)"/>
<path d="M0 0 C0.73154297 0.01353516 1.46308594 0.02707031 2.21679688 0.04101562 C3.99902422 0.07596126 5.78086573 0.12975195 7.5625 0.1875 C7.5625 0.5175 7.5625 0.8475 7.5625 1.1875 C6.02529297 1.24357422 6.02529297 1.24357422 4.45703125 1.30078125 C3.09631938 1.36647079 1.73564389 1.43291709 0.375 1.5 C-0.29853516 1.52255859 -0.97207031 1.54511719 -1.66601562 1.56835938 C-6.0249905 1.80225559 -8.99316856 2.45668355 -12.4375 5.1875 C-12.7675 6.1775 -13.0975 7.1675 -13.4375 8.1875 C-14.4275 7.8575 -15.4175 7.5275 -16.4375 7.1875 C-16.375 5.375 -16.375 5.375 -15.4375 3.1875 C-10.12912661 0.34177406 -5.95320199 -0.21241983 0 0 Z " fill="#5A849F" transform="translate(583.4375,399.8125)"/>
<path d="M0 0 C0.33 0.66 0.66 1.32 1 2 C-1.20317005 4.68656601 -2.35049382 5.89617725 -5.84082031 6.45410156 C-7.44328613 6.42268066 -7.44328613 6.42268066 -9.078125 6.390625 C-10.23828125 6.37773437 -11.3984375 6.36484375 -12.59375 6.3515625 C-13.8003125 6.31804687 -15.006875 6.28453125 -16.25 6.25 C-18.08304688 6.22292969 -18.08304688 6.22292969 -19.953125 6.1953125 C-22.96954078 6.148181 -25.98437491 6.08239413 -29 6 C-29 5.67 -29 5.34 -29 5 C-28.33468262 4.9906543 -27.66936523 4.98130859 -26.98388672 4.97167969 C-23.94685981 4.91773981 -20.91133421 4.83413938 -17.875 4.75 C-16.82828125 4.73582031 -15.7815625 4.72164063 -14.703125 4.70703125 C-8.54094865 4.51202567 -4.72223894 4.08498178 0 0 Z " fill="#4DADB4" transform="translate(804,430)"/>
<path d="M0 0 C0 0.33 0 0.66 0 1 C-8.48688461 3.29967196 -16.20606372 4.42781312 -25 4 C-25 3.67 -25 3.34 -25 3 C-22.3347536 2.49118023 -19.66821581 1.99279859 -17 1.5 C-15.88431641 1.28537109 -15.88431641 1.28537109 -14.74609375 1.06640625 C-9.74779985 0.15367432 -5.08079684 -0.13856719 0 0 Z " fill="#C3F1F1" transform="translate(311,316)"/>
<path d="M0 0 C0.66 0.66 1.32 1.32 2 2 C0.88625 2.12375 -0.2275 2.2475 -1.375 2.375 C-5.03103677 2.6465813 -5.03103677 2.6465813 -7 5 C-7.64767793 7.57061311 -7.64767793 7.57061311 -8 10 C-10 8 -10 8 -10.3125 5.5625 C-10 3 -10 3 -8.9375 1.1875 C-5.94449731 -0.646921 -3.42183337 -0.31107576 0 0 Z " fill="#3F5683" transform="translate(429,383)"/>
<path d="M0 0 C0.59167969 0.06960938 1.18335938 0.13921875 1.79296875 0.2109375 C1.79296875 0.5409375 1.79296875 0.8709375 1.79296875 1.2109375 C0.74109375 1.2521875 -0.31078125 1.2934375 -1.39453125 1.3359375 C-6.29295445 2.46016578 -7.55740541 4.00270822 -10.20703125 8.2109375 C-11.08708462 11.93790968 -11.08708462 11.93790968 -11.20703125 15.2109375 C-11.53703125 15.2109375 -11.86703125 15.2109375 -12.20703125 15.2109375 C-12.66422649 10.63898511 -13.00066642 6.548723 -10.26953125 2.6484375 C-6.54354124 -0.31714638 -4.60126563 -0.315258 0 0 Z " fill="#C7DEE7" transform="translate(630.20703125,409.7890625)"/>
<path d="M0 0 C0 0.33 0 0.66 0 1 C-2.03959477 1.50838564 -4.08179138 2.00633886 -6.125 2.5 C-7.26195312 2.7784375 -8.39890625 3.056875 -9.5703125 3.34375 C-12.81466698 3.96453765 -15.70814457 4.12006768 -19 4 C-14.00903151 -0.99096849 -6.57219564 -0.23802721 0 0 Z " fill="#42B3B6" transform="translate(291,318)"/>
<path d="M0 0 C0.99773438 0.02320313 1.99546875 0.04640625 3.0234375 0.0703125 C4.52777344 0.09738281 4.52777344 0.09738281 6.0625 0.125 C6.83335937 0.14820313 7.60421875 0.17140625 8.3984375 0.1953125 C8.3984375 0.5253125 8.3984375 0.8553125 8.3984375 1.1953125 C7.80675781 1.20949219 7.21507812 1.22367187 6.60546875 1.23828125 C2.03996907 1.51384975 -0.04317681 1.72809182 -3.6640625 4.7578125 C-4.3034375 5.5621875 -4.9428125 6.3665625 -5.6015625 7.1953125 C-4.51902891 0.33926643 -4.51902891 0.33926643 0 0 Z " fill="#BCD2E1" transform="translate(581.6015625,422.8046875)"/>
<path d="M0 0 C0.66 0.33 1.32 0.66 2 1 C-0.31 3.64 -2.62 6.28 -5 9 C-5.99 8.67 -6.98 8.34 -8 8 C-5.36 5.36 -2.72 2.72 0 0 Z " fill="#3B7597" transform="translate(160,373)"/>
<path d="M0 0 C1.13199353 0.9080162 2.25532363 1.82683826 3.375 2.75 C4.00148437 3.26046875 4.62796875 3.7709375 5.2734375 4.296875 C7.08312318 6.08199481 8.00117455 7.67949644 9 10 C1.89473684 5.42105263 1.89473684 5.42105263 0 3 C0 2.01 0 1.02 0 0 Z " fill="#54A1AE" transform="translate(195,313)"/>
<path d="M0 0 C2.37826383 3.56739574 2.38656475 5.87242542 2.65625 10.0390625 C2.7696875 10.68617188 2.883125 11.33328125 3 12 C3.66 12.33 4.32 12.66 5 13 C4.01 13 3.02 13 2 13 C0.21590198 9.93753253 -0.22880021 7.77920727 -0.125 4.25 C-0.10695313 3.45078125 -0.08890625 2.6515625 -0.0703125 1.828125 C-0.04710937 1.22484375 -0.02390625 0.6215625 0 0 Z " fill="#5BACBB" transform="translate(287,416)"/>
<path d="M0 0 C0.66 0 1.32 0 2 0 C2 0.66 2 1.32 2 2 C2.66 2 3.32 2 4 2 C4 2.66 4 3.32 4 4 C5.32 4.33 6.64 4.66 8 5 C8 5.66 8 6.32 8 7 C4.66272214 5.82744291 2.22562513 4.81131596 0 2 C0 1.34 0 0.68 0 0 Z " fill="#3D5685" transform="translate(196,530)"/>
<path d="M0 0 C0.66 0 1.32 0 2 0 C0.50902342 3.7952131 -1.75700849 5.61042731 -5 8 C-5 7.01 -5 6.02 -5 5 C-4.34 5 -3.68 5 -3 5 C-2.67 4.01 -2.34 3.02 -2 2 C-1.34 2 -0.68 2 0 2 C0 1.34 0 0.68 0 0 Z " fill="#406F93" transform="translate(255,499)"/>
<path d="M0 0 C0.33 1.32 0.66 2.64 1 4 C1.99 3.67 2.98 3.34 4 3 C4 4.32 4 5.64 4 7 C3.01 7 2.02 7 1 7 C0.67 7.99 0.34 8.98 0 10 C0 6.7 0 3.4 0 0 Z " fill="#BFC7D7" transform="translate(479,430)"/>
<path d="M0 0 C0.66 0.33 1.32 0.66 2 1 C0.02 3.31 -1.96 5.62 -4 8 C-4.33 7.34 -4.66 6.68 -5 6 C-3.35 4.02 -1.7 2.04 0 0 Z " fill="#CFE0EA" transform="translate(169,404)"/>
<path d="M0 0 C0.66 0 1.32 0 2 0 C1.37240135 2.92879371 0.41377341 5.36095629 -1 8 C-1.66 8 -2.32 8 -3 8 C-1.125 2.25 -1.125 2.25 0 0 Z " fill="#446D94" transform="translate(140,397)"/>
<path d="M0 0 C1.32 0.66 2.64 1.32 4 2 C1.6875 3.5625 1.6875 3.5625 -1 5 C-1.99 4.67 -2.98 4.34 -4 4 C-2.68 2.68 -1.36 1.36 0 0 Z " fill="#2C9EAB" transform="translate(230,310)"/>
<path d="M0 0 C0.66 0.33 1.32 0.66 2 1 C2 1.66 2 2.32 2 3 C-0.31 4.32 -2.62 5.64 -5 7 C-3.70700306 4.11562221 -2.34058637 2.12780579 0 0 Z " fill="#509DA7" transform="translate(223,315)"/>
<path d="M0 0 C0.66 0.33 1.32 0.66 2 1 C0.875 2.5 0.875 2.5 -1 4 C-4.1875 4.1875 -4.1875 4.1875 -7 4 C-4.61426621 2.10786631 -2.92824652 0.97608217 0 0 Z " fill="#52B8BD" transform="translate(249,312)"/>
</svg>
